<svg xmlns="http://www.w3.org/2000/svg" version="1.1" xmlns:xlink="http://www.w3.org/1999/xlink" width="1500" height="1500" viewBox="0 0 1500 1500"><rect width="1500" height="1500" x="0" y="0" id="background" stroke="transparent" fill="#ffffff"></rect><svg xml:space="preserve" width="1000" height="1000" data-version="2" data-id="lg_26kTvxOrcw02krWPWv" viewBox="0 0 567 142" x="250" y="250"><rect width="100%" height="100%" fill="transparent"></rect><circle r="59.32" fill="#152232" transform="translate(71.96 68.06)scale(1.1193)"></circle><path fill="#152232" d="M192.28 103.71h-33.29q-.44 0-.44-1.11v-.67q0-.44.55-.44.56 0 1.64-.34 1.09-.33 1.65-.44 5.67-1.28 5.67-6.46V35.47q0-5.12-1.89-6.54t-6.84-1.42h-2.51q-1.17 0-1.17-1.34 0-.78.73-.94h.38l31.23-.84h5.62q9.97.67 16.59 7.18 6.63 6.52 6.63 15.62t-6.52 16.5q-2.84 3.29-6.4 5.32-3.56 2.03-7.01 2.08l-16.7-.66h-.45q-.83 0-.83.78v22.87q0 3.07 1.67 4.51 1.67 1.45 7.07 2.28.72.12 2.34.37 1.61.25 2.17.25.55 0 .55.44v1.34q0 .44-.44.44m-8.85-76.51q-.67.03-1.42.06-.75.03-1.92.05-1.17.03-1.17.92v35.91l.11 1.67q.17 1.17 1.06 1.22l5.68.33q8.96 0 14.44-6.01 5.48-6.01 5.48-15.11t-5.31-14.11q-5.32-5.01-14.17-5.01-.78 0-1.45.03-.66.03-1.33.05"></path><rect width="61.18" height="79.32" x="-30.59" y="-39.66" fill="none" rx="0" ry="0" transform="translate(186.74 64.55)"></rect><path fill="#152232" d="M258.57 63.8q-.66-.11-1.94-.72-4.62-2.12-7.24-2.12t-5.48 3.26q-2.87 3.26-2.87 5.87v25.16q0 4.18 4.84 5.57 2.12.56 3.95.81 1.84.25 2.37.47.53.22.53.86t-.56.75h-27.88q-.56-.11-.56-.78 0-1 2.61-1.33 6.02-.89 6.02-6.35V65.81q0-2.34-2.56-3.23-1.12-.39-2.4-.64-1.28-.25-2.03-.48-.75-.22-.95-.41-.19-.2-.19-.84 0-.64.83-1.08l14.2-6.68q.67-.34.83-.34.95 0 .95 1.34v9.02q0 .66.33.66.45 0 2.29-2.61 5.28-7.41 8.74-7.41 1.94 0 5.98 1.56 4.04 1.56 4.04 2.62 0 1.28-1.29 3.9-1.28 2.61-2.56 2.61"></path><rect width="38.69" height="51.6" x="-19.34" y="-25.8" fill="none" rx="0" ry="0" transform="translate(243.57 78.41)"></rect><path fill="#152232" d="M266.59 78.69q0-10.94 7.76-18.81Q282.12 52 292.97 52q10.86 0 18.87 7.66 8.02 7.65 8.02 18.89 0 11.25-7.6 18.96-7.6 7.71-19.06 7.71-11.47 0-19.04-7.8-7.57-7.79-7.57-18.73m13.86 14.34q5.46 9.18 14.86 9.18 7.29 0 11.16-5.84 3.87-5.85 3.87-14.37 0-8.51-5.43-17.47-5.42-8.97-14.61-8.97-6.73 0-10.6 5.82-3.87 5.82-3.87 14.75 0 8.94 4.62 16.9"></path><rect width="53.27" height="53.22" x="-26.64" y="-26.61" fill="none" rx="0" ry="0" transform="translate(293.73 79.11)"></rect><path fill="#152232" d="M330.1 133.94q5.9-1.39 5.9-12.58V65.81q0-2.34-2.56-3.23-1.11-.39-2.39-.64t-2.03-.48q-.75-.22-.95-.41-.19-.2-.19-.84 0-.64.83-1.08l14.2-6.68q.66-.34.83-.34.95 0 .95 1.34v57.33q0 8.91-3.68 16.2-1.28 2.51-3.06 4.57-4.9 6.56-12.91 7.45-2.67.34-5.65.34-2.98 0-5.93-2.26-2.95-2.25-3.17-4.87 0-3 2.95-4.45.94-.45 1.67-.45 1.28 0 7.68 4.9 2.28 1.73 7.51 1.73m8.71-97.47q-2.31 0-4.09-1.45-1.78-1.44-1.78-4.03 0-2.59 1.67-4.09 1.67-1.51 4.01-1.51t3.92 1.79q1.59 1.78 1.59 3.84 0 2.06-1.5 3.75-1.51 1.7-3.82 1.7"></path><rect width="34.4" height="113.95" x="-17.2" y="-56.98" fill="none" rx="0" ry="0" transform="translate(327.99 82.86)"></rect><path fill="#152232" d="M401.3 74.38h-32.29q-.94 0-.94 4.06 0 8.63 5.12 14.47 5.12 5.85 12.72 5.85 7.59 0 14.61-6.57.11-.11.28-.11h.27q.34 0 .64.53.31.53.59.69-6.46 7.85-15.2 10.86-3 1.06-6.79 1.06-3.78 0-7.68-2.09t-6.68-5.48q-5.9-7.07-5.9-17.62t6.43-19.23q6.43-8.69 17.67-8.69 8.07 0 13.19 7.21 5.13 7.21 5.13 12.66 0 2.4-1.17 2.4m-31.68-6.01v.66q0 1.06 1.01 1.06h20.98q1.45 0 1.45-1.72 0-4.01-3.59-8.21-3.59-4.21-7.88-4.21-4.17 0-7.6 3.79-3.42 3.78-4.37 8.63"></path><rect width="42.42" height="53.11" x="-21.21" y="-26.55" fill="none" rx="0" ry="0" transform="translate(381.76 79.17)"></rect><path fill="#152232" d="M455.51 58.79q0 3.9-4.51 3.9-2.28 0-3.86-1.31-1.59-1.31-2.45-2.23-.87-.91-1.81-1.69-4.01-3.29-9.77-.73t-8.88 10.91q-1.73 4.62-1.73 9.19 0 9.79 4.46 16 4.45 6.21 13.64 6.21 6.84 0 12.3-6.13 1.67-1.83 2-1.83.34 0 .73.33.38.34.38.98 0 .64-.33.97-8.52 11.86-21.43 11.86-9.35 0-15.34-6.96-5.98-6.96-5.98-15.92.06-16.59 8.02-23.88 7.01-6.4 19.98-6.4 8.02 0 10.63 1.61 2.62 1.62 3.68 4.06.27.56.27 1.06"></path><rect width="43.08" height="53.16" x="-21.54" y="-26.58" fill="none" rx="0" ry="0" transform="translate(434.97 79.14)"></rect><path fill="#152232" d="M494.09 60.91h-16.76q-.33 0-.33.5v30.73q0 3.34 1.48 5.23 1.47 1.89 3.75 1.89 2.28 0 3.98-.75 1.7-.75 2.95-1.64 1.26-.89 2.26-1.65 1-.75 1.78-.75t.78.39q0 1.34-.28 1.73-6.68 8.63-12.89 8.63-6.2 0-9.35-3.93-3.14-3.92-3.14-9.38v-31h-4.18q-1.56 0-1.64-1-.08-1.01.31-1.28 2.95-1.9 8.12-6.8.56-.61 1.51-1.83.94-1.23 2.75-3.34 1.81-2.12 2.76-2.12.94 0 .94.78 0 .11-1.89 7.29 0 1.01.89 1.06h14.19q2.45 0 2.45 6.9 0 .34-.44.34"></path><rect width="32.07" height="60.68" x="-16.04" y="-30.34" fill="none" rx="0" ry="0" transform="translate(479 75.38)"></rect><path fill="#152232" d="M540.57 93.53v-59.4q0-6.68-7.68-6.68-1.23 0-1.23-.44v-1.34q0-.44.45-.44H560q.44 0 .44.44v1.34q0 .44-2.45.44t-4.51 1.56q-2.06 1.56-2.06 6.4v59.4q0 6.68 7.74 6.68 1.17 0 1.17.44v1.34q0 .44-.45.44H532q-.45 0-.45-.44v-1.34q0-.44 2.45-.44t4.51-1.56q2.06-1.56 2.06-6.4"></path><rect width="28.89" height="78.48" x="-14.45" y="-39.24" fill="none" rx="0" ry="0" transform="translate(546.5 64.97)"></rect><path fill="#fff" d="M64.4 92H42.79q-.29 0-.29-.73v-.43q0-.29.36-.29.37 0 1.07-.22.71-.21 1.07-.28 3.68-.84 3.68-4.2V47.7q0-3.33-1.23-4.25-1.22-.92-4.44-.92h-1.63q-.76 0-.76-.87 0-.5.47-.61h.26l20.27-.54h3.65q6.46.43 10.76 4.66t4.3 10.13q0 5.91-4.22 10.72-1.85 2.13-4.16 3.45-2.31 1.32-4.55 1.35l-10.84-.43h-.29q-.54 0-.54.51v14.85q0 1.98 1.08 2.92 1.09.94 4.59 1.48.47.08 1.52.24 1.05.16 1.41.16.36 0 .36.29v.87q0 .29-.29.29m-5.75-49.67q-.43.02-.92.04-.48.02-1.24.03-.76.02-.76.6v23.31l.07 1.08q.11.76.69.8l3.68.21q5.82 0 9.38-3.9 3.56-3.9 3.56-9.81t-3.45-9.16q-3.45-3.25-9.2-3.25-.5 0-.94.02-.43.01-.87.03" paint-order="stroke"></path><rect width="39.71" height="51.49" x="-19.86" y="-25.75" fill="none" rx="0" ry="0" transform="translate(60.98 66.75)"></rect><path fill="#fff" d="M92.04 85.38V46.83q0-4.33-4.98-4.33-.8 0-.8-.29v-.87q0-.29.29-.29h18.1q.29 0 .29.29v.87q0 .29-1.59.29t-2.93 1.01q-1.33 1.01-1.33 4.15v38.56q0 4.33 5.02 4.33.76 0 .76.29v.87q0 .29-.29.29h-18.1q-.29 0-.29-.29v-.87q0-.29 1.59-.29t2.92-1.01q1.34-1.01 1.34-4.16" paint-order="stroke"></path><rect width="18.75" height="50.95" x="-9.38" y="-25.48" fill="none" rx="0" ry="0" transform="translate(96.06 67.03)"></rect></svg></svg>